<svg width="175" height="54" viewBox="0 0 175 54" xmlns="http://www.w3.org/2000/svg" class="IconFooterIos"><path d="m161.06 2.3228e-6h-147.12c-0.5363 0-1.0661 6e-11 -1.601 0.0027-0.4477 0.0027-0.8919 0.010543-1.3439 0.017145-0.982 0.010668-1.9617 0.090418-2.9305 0.23856-0.96751 0.15136-1.9047 0.43673-2.7799 0.84645-0.87412 0.41318-1.6728 0.95007-2.3672 1.5912-0.69797 0.63931-1.2798 1.3783-1.7231 2.1885-0.4445 0.80858-0.75272 1.675-0.91402 2.5695-0.16283 0.8933-0.25044 1.7969-0.26207 2.7027-0.013571 0.4139-0.015005 0.8292-0.022156 1.2432v31.204c0.0071513 0.4192 0.0085844 0.8253 0.022156 1.2446 0.011628 0.9057 0.099245 1.8093 0.26207 2.7025 0.16085 0.895 0.46908 1.762 0.91402 2.5708 0.44308 0.8076 1.025 1.5436 1.7231 2.1794 0.69169 0.6439 1.4909 1.1812 2.3672 1.5912 0.87519 0.4108 1.8123 0.6979 2.7799 0.8516 0.96903 0.1469 1.9486 0.2267 2.9305 0.2387 0.452 0.0091 0.8962 0.0144 1.3439 0.0144 0.5349 0.0027 1.0647 0.0027 1.601 0.0027h147.12c0.526 0 1.06 0 1.585-0.0027 0.446 0 0.903-0.0053 1.349-0.0144 0.98-0.0114 1.957-0.0911 2.924-0.2387 0.971-0.1548 1.912-0.4418 2.791-0.8516 0.875-0.4103 1.674-0.9475 2.365-1.5912 0.696-0.6383 1.279-1.3737 1.728-2.1794 0.442-0.8094 0.747-1.6763 0.905-2.5708 0.164-0.8933 0.254-1.7967 0.272-2.7025 6e-3 -0.4193 6e-3 -0.8254 6e-3 -1.2446 0.011-0.4904 0.011-0.9782 0.011-1.4766v-28.254c0-0.4944 0-0.9848-0.011-1.4739 0-0.414 0-0.8293-6e-3 -1.2433-0.018-0.90583-0.108-1.8092-0.272-2.7026-0.158-0.89392-0.464-1.7603-0.905-2.5695-0.903-1.6239-2.334-2.9458-4.093-3.7797-0.879-0.40871-1.82-0.694-2.791-0.84645-0.966-0.14879-1.944-0.22857-2.924-0.23863-0.446-0.006588-0.903-0.014499-1.349-0.017131-0.525-0.0027-1.059-0.0025245-1.585-0.0025245z" fill="#010101"></path><path d="m37.332 26.096c0.0139-1.0731 0.3013-2.1253 0.8354-3.0587s1.2976-1.7176 2.2194-2.2796c-0.5856-0.8295-1.3581-1.5122-2.2562-1.9937-0.8981-0.4816-1.8971-0.7488-2.9175-0.7805-2.1768-0.2266-4.2871 1.2919-5.3964 1.2919-1.1307 0-2.8386-1.2694-4.6777-1.2319-1.1895 0.0381-2.3489 0.3812-3.365 0.9959-1.0162 0.6146-1.8544 1.4799-2.4332 2.5114-2.507 4.3051-0.637 10.632 1.7645 14.112 1.2016 1.704 2.6058 3.6074 4.4432 3.5399 1.7981-0.0739 2.4696-1.1371 4.64-1.1371 2.1502 0 2.7803 1.1371 4.655 1.0942 1.9294-0.031 3.145-1.7116 4.3044-3.4317 0.8633-1.2142 1.5276-2.5561 1.9683-3.9761-1.1209-0.4702-2.0775-1.2573-2.7504-2.2631-0.673-1.0058-1.0325-2.1859-1.0338-3.393z" fill="#F0EEEE"></path><path d="m33.79 15.695c1.052-1.2526 1.5703-2.8625 1.4448-4.488-1.6072 0.1675-3.0918 0.9293-4.158 2.1338-0.5213 0.5884-0.9205 1.273-1.1749 2.0146-0.2544 0.7415-0.359 1.5255-0.3077 2.3072 0.8039 0.0082 1.5992-0.1646 2.326-0.5054 0.7268-0.3409 1.3661-0.8408 1.8698-1.4622z" fill="#F0EEEE"></path><path d="m63.361 34.887h-6.1359l-1.4735 4.3154h-2.599l5.8119-15.966h2.7001l5.8119 15.966h-2.6433l-1.4722-4.3154zm-5.5004-1.9914h4.8637l-2.3977-7.0036h-0.0671l-2.3989 7.0036z" fill="#F0EEEE"></path><path d="m80.029 33.382c0 3.6174-1.952 5.9414-4.8978 5.9414-0.7462 0.0387-1.4884-0.1318-2.1414-0.4919-0.6531-0.3602-1.1907-0.8955-1.5513-1.5446h-0.0557v5.7656h-2.4091v-15.491h2.3319v1.9361h0.0443c0.3772-0.646 0.9238-1.1785 1.5819-1.5409 0.658-0.3624 1.4028-0.541 2.1551-0.517 2.9786 1e-4 4.9421 2.3354 4.9421 5.9427zm-2.4761 0c0-2.3567-1.228-3.9061-3.1015-3.9061-1.8407 0-3.0787 1.582-3.0787 3.9061 0 2.3454 1.238 3.9162 3.0787 3.9162 1.8735 0 3.1015-1.5381 3.1015-3.9162z" fill="#F0EEEE"></path><path d="m92.946 33.382c0 3.6173-1.952 5.9414-4.8978 5.9414-0.7462 0.0387-1.4884-0.1318-2.1414-0.4919-0.6531-0.3602-1.1907-0.8955-1.5513-1.5447h-0.0557v5.7657h-2.4091v-15.491h2.3318v1.9361h0.0443c0.3772-0.646 0.9239-1.1785 1.5819-1.5409 0.6581-0.3624 1.4029-0.541 2.1551-0.517 2.9788 0 4.9422 2.3354 4.9422 5.9427zm-2.4761 0c0-2.3567-1.228-3.9061-3.1015-3.9061-1.8407 0-3.0787 1.582-3.0787 3.9061 0 2.3454 1.238 3.9162 3.0787 3.9162 1.8735 0 3.1015-1.5381 3.1015-3.9162z" fill="#F0EEEE"></path><path d="m101.48 34.754c0.178 1.5833 1.729 2.6228 3.848 2.6228 2.031 0 3.491-1.0396 3.491-2.4672 0-1.2392-0.881-1.9813-2.967-2.4898l-2.086-0.4985c-2.956-0.7081-4.3283-2.0792-4.3283-4.3041 0-2.7547 2.4203-4.6469 5.8573-4.6469 3.402 0 5.733 1.8922 5.812 4.6469h-2.432c-0.146-1.5933-1.473-2.5551-3.414-2.5551s-3.269 0.9731-3.269 2.3894c0 1.1287 0.848 1.7929 2.923 2.3014l1.774 0.4319c3.303 0.7747 4.675 2.0906 4.675 4.426 0 2.987-2.399 4.8578-6.215 4.8578-3.569 0-5.9797-1.8269-6.1354-4.7147l2.4664 1e-4z" fill="#F0EEEE"></path><path d="m116.56 24.809v2.7547h2.232v1.8922h-2.232v6.4173c0 0.9969 0.447 1.4615 1.428 1.4615 0.265-0.0046 0.53-0.0231 0.793-0.0553v1.8808c-0.441 0.0818-0.89 0.1188-1.338 0.1105-2.376 0-3.303-0.8852-3.303-3.1427v-6.6721h-1.707v-1.8922h1.707v-2.7547h2.42z" fill="#F0EEEE"></path><path d="m120.09 33.384c0-3.6625 2.175-5.964 5.566-5.964 3.403 0 5.568 2.3015 5.568 5.964 0 3.6726-2.154 5.964-5.568 5.964-3.413 0-5.566-2.2914-5.566-5.964zm8.679 0c0-2.5124-1.161-3.9952-3.113-3.9952s-3.112 1.4941-3.112 3.9952c0 2.5225 1.16 3.994 3.112 3.994s3.113-1.4715 3.113-3.994z" fill="#F0EEEE"></path><path d="m133.21 27.561h2.298v1.9813h0.055c0.156-0.6188 0.521-1.1656 1.035-1.5486 0.515-0.383 1.146-0.5788 1.788-0.5545 0.278-9e-4 0.555 0.029 0.826 0.0892v2.2349c-0.351-0.1062-0.716-0.155-1.083-0.1444-0.35-0.0141-0.699 0.0471-1.022 0.1794-0.324 0.1323-0.615 0.3325-0.854 0.587-0.238 0.2544-0.419 0.557-0.528 0.887s-0.146 0.6796-0.106 1.0248v6.9044h-2.409v-11.64z" fill="#F0EEEE"></path><path d="m150.32 35.785c-0.324 2.1131-2.399 3.5633-5.053 3.5633-3.414 0-5.534-2.2688-5.534-5.9087 0-3.6513 2.131-6.0193 5.432-6.0193 3.248 0 5.289 2.2123 5.289 5.7418v0.8186h-8.289v0.1444c-0.038 0.4284 0.016 0.86 0.159 1.2661 0.143 0.406 0.371 0.7773 0.67 1.0892 0.298 0.3118 0.66 0.5571 1.062 0.7195 0.401 0.1624 0.833 0.2382 1.266 0.2224 0.57 0.0529 1.141-0.0779 1.629-0.3729 0.489-0.295 0.868-0.7384 1.082-1.2644h2.287zm-8.143-3.4742h5.867c0.022-0.3852-0.037-0.7707-0.173-1.1322-0.136-0.3616-0.345-0.6914-0.615-0.9688-0.271-0.2774-0.596-0.4964-0.956-0.6433-0.359-0.1468-0.746-0.2184-1.135-0.2101-0.392-0.0023-0.781 0.0725-1.144 0.22s-0.693 0.3649-0.971 0.6396c-0.277 0.2746-0.498 0.6012-0.648 0.9607-0.15 0.3596-0.226 0.745-0.225 1.1341z" fill="#F0EEEE"></path><path d="m54.769 18.892v-7.6715h3.109c1.4533 0 2.3268 0.7333 2.3268 1.9135 3e-4 0.3877-0.1345 0.7636-0.3815 1.0641-0.2471 0.3004-0.5913 0.5069-0.9743 0.5845v0.0904c0.4752 0.0223 0.9229 0.2274 1.2482 0.5718 0.3252 0.3443 0.5023 0.8009 0.4937 1.2726 0 1.3504-0.9912 2.1747-2.6432 2.1747l-3.1787-1e-4zm1.2013-4.4234h1.4254c1.0621 0 1.6141-0.3879 1.6141-1.1162 0-0.7075-0.5203-1.1218-1.4103-1.1218h-1.6292v2.238zm1.7368 3.4133c1.0824 0 1.6558-0.4363 1.6558-1.2493 0-0.8029-0.595-1.2229-1.7254-1.2229h-1.6672v2.4722h1.7368z" fill="#F0EEEE"></path><path d="m61.824 17.256c0-1.0421 0.7824-1.6429 2.1711-1.7283l1.5811-0.0904v-0.4997c0-0.6115-0.4076-0.9567-1.195-0.9567-0.6431 0-1.0887 0.2341-1.2166 0.6434h-1.1152c0.1177-0.9944 1.0608-1.6322 2.3849-1.6322 1.4634 0 2.2888 0.7226 2.2888 1.9455v3.9557h-1.1089v-0.8136h-0.0912c-0.185 0.2918-0.4448 0.5298-0.7528 0.6895s-0.6533 0.2354-1.0005 0.2195c-0.245 0.0253-0.4927-7e-4 -0.727-0.0761-0.2343-0.0755-0.4501-0.1988-0.6334-0.3621-0.1833-0.1632-0.3301-0.3628-0.4309-0.5857-0.1008-0.223-0.1534-0.4644-0.1544-0.7088zm3.7522-0.4947v-0.484l-1.4254 0.0904c-0.8039 0.0534-1.1685 0.3246-1.1685 0.835 0 0.521 0.4558 0.8242 1.0824 0.8242 0.1836 0.0185 0.3691 1e-4 0.5454-0.054s0.3399-0.1429 0.4809-0.261c0.141-0.118 0.2566-0.2631 0.34-0.4264 0.0833-0.1633 0.1327-0.3415 0.1452-0.5242z" fill="#F0EEEE"></path><path d="m68.377 11.392c-0.0089-0.148 0.0272-0.2952 0.1037-0.4226 0.0764-0.1274 0.1897-0.229 0.3251-0.2919 0.1354-0.0628 0.2867-0.0838 0.4342-0.0604 0.1476 0.0235 0.2847 0.0904 0.3935 0.192 0.1089 0.1016 0.1844 0.2333 0.2169 0.378s0.0205 0.2957-0.0346 0.4336c-0.055 0.1378-0.1505 0.256-0.2741 0.3394s-0.2696 0.128-0.4191 0.1281c-0.0955 0.0049-0.191-0.0095-0.2808-0.0422s-0.172-0.0831-0.2417-0.1482c-0.0696-0.065-0.1253-0.1433-0.1636-0.2303-0.0384-0.0869-0.0586-0.1806-0.0595-0.2755zm0.1709 1.712h1.1482v5.7895h-1.1482v-5.7895z" fill="#F0EEEE"></path><path d="m73.649 16.841l-1.276 2.0522h-1.2646l1.9355-2.8816-1.952-2.9079h1.3457l1.2545 2.0416h0.0911l1.2432-2.0416h1.2811l-1.9242 2.8602 1.9457 2.9293h-1.3229l-1.271-2.0522h-0.0861z" fill="#F0EEEE"></path><path d="m77.346 17.256c0-1.0421 0.7823-1.6429 2.171-1.7283l1.5812-0.0904v-0.4997c0-0.6115-0.4076-0.9567-1.195-0.9567-0.6431 0-1.0887 0.2341-1.2166 0.6434h-1.1153c0.1178-0.9944 1.0609-1.6322 2.385-1.6322 1.4634 0 2.2888 0.7226 2.2888 1.9455v3.9557h-1.1089v-0.8136h-0.0912c-0.185 0.2918-0.4448 0.5298-0.7528 0.6895s-0.6533 0.2354-1.0005 0.2195c-0.245 0.0253-0.4927-7e-4 -0.727-0.0761-0.2343-0.0755-0.4501-0.1988-0.6334-0.3621-0.1833-0.1632-0.3301-0.3628-0.4309-0.5857-0.1009-0.223-0.1534-0.4644-0.1544-0.7088zm3.7522-0.4947v-0.484l-1.4254 0.0904c-0.8039 0.0534-1.1685 0.3246-1.1685 0.835 0 0.521 0.4557 0.8242 1.0824 0.8242 0.1836 0.0185 0.3691 1e-4 0.5454-0.054s0.3398-0.1429 0.4809-0.261c0.141-0.118 0.2566-0.2631 0.34-0.4264 0.0833-0.1633 0.1327-0.3415 0.1452-0.5242z" fill="#F0EEEE"></path><path d="m84.049 13.104h1.109v0.8877h0.0861c0.1241-0.3081 0.3435-0.5694 0.6267-0.7461s0.6155-0.2599 0.9493-0.2376c0.1726-0.0023 0.3449 0.0137 0.514 0.0477v1.1275c-0.2114-0.0448-0.4269-0.0679-0.6431-0.069-0.19-0.0169-0.3815 0.0057-0.5621 0.0666-0.1806 0.0608-0.3464 0.1585-0.4868 0.2867-0.1403 0.1281-0.252 0.284-0.328 0.4576-0.076 0.1735-0.1145 0.3609-0.1131 0.5501v3.4183h-1.152v-5.7895z" fill="#F0EEEE"></path><path d="m91.773 13.106h1.1097v0.9197h0.0861c0.146-0.3303 0.3923-0.6072 0.7045-0.7921 0.3123-0.1849 0.6749-0.2685 1.0374-0.2393 0.284-0.0212 0.5692 0.0213 0.8344 0.1243 0.2652 0.1029 0.5036 0.2638 0.6977 0.4706 0.194 0.2068 0.3387 0.4542 0.4232 0.724s0.1067 0.5549 0.0651 0.8344v3.7479h-1.152v-3.461c0-0.9304-0.4077-1.3931-1.2596-1.3931-0.1928-0.0089-0.3853 0.0237-0.5643 0.0955s-0.3402 0.1811-0.4725 0.3204c-0.1324 0.1394-0.2329 0.3055-0.2945 0.4869-0.0616 0.1815-0.0829 0.374-0.0625 0.5644v3.3869h-1.1526l-1e-4 -5.7895z" fill="#F0EEEE"></path><path d="m98.18 17.256c0-1.0421 0.7823-1.6429 2.1713-1.7283l1.581-0.0904v-0.4997c0-0.6115-0.408-0.9567-1.195-0.9567-0.643 0-1.0888 0.2341-1.2167 0.6434h-1.1153c0.1177-0.9944 1.0609-1.6322 2.385-1.6322 1.463 0 2.289 0.7226 2.289 1.9455v3.9557h-1.109v-0.8136h-0.091c-0.185 0.2918-0.445 0.5298-0.753 0.6895s-0.653 0.2354-1.001 0.2195c-0.2446 0.0253-0.4923-7e-4 -0.7266-0.0761-0.2343-0.0755-0.4501-0.1988-0.6334-0.3621-0.1834-0.1632-0.3302-0.3628-0.431-0.5857-0.1008-0.223-0.1533-0.4644-0.1543-0.7088zm3.7523-0.4947v-0.484l-1.426 0.0904c-0.8034 0.0534-1.168 0.3246-1.168 0.835 0 0.521 0.4557 0.8242 1.082 0.8242 0.184 0.0185 0.369 1e-4 0.546-0.054 0.176-0.0541 0.34-0.1429 0.481-0.261 0.141-0.118 0.256-0.263 0.34-0.4264 0.083-0.1633 0.132-0.3415 0.145-0.5242z" fill="#F0EEEE"></path></svg>