<svg width="175" height="54" fill="none" viewBox="0 0 175 54" xmlns="http://www.w3.org/2000/svg" class="IconFooterAndroid"><path d="M168.519 54H6.48148C2.91667 54 0 50.9625 0 47.25V6.75C0 3.0375 2.91667 0 6.48148 0H168.519C172.083 0 175 3.0375 175 6.75V47.25C175 50.9625 172.083 54 168.519 54Z" fill="#000"></path><path d="m13.238 11.119c-0.3677 0.3986-0.5833 1.0157-0.5833 1.8v28.44c0 0.7971 0.2156 1.4143 0.5833 1.8l0.0888 0.09 15.712-15.917v-0.3858l-15.712-15.917-0.0888 0.09z" fill="url(#d)"></path><path d="m34.275 32.644l-5.2373-5.31v-0.3857l5.2373-5.31 0.1141 0.0643 6.2011 3.5742c1.7754 1.0158 1.7754 2.6872 0 3.7158l-6.2011 3.5742-0.1141 0.0772z" fill="url(#c)"></path><path d="m34.39 32.564l-5.3515-5.4257-15.801 16.02c0.5833 0.63 1.5471 0.7071 2.6377 0.0771l18.514-10.671z" fill="url(#b)"></path><path d="m34.39 21.714l-18.527-10.671c-1.0906-0.63-2.0544-0.5528-2.6377 0.0772l15.813 16.02 5.3515-5.4258z" fill="url(#a)"></path><path d="m34.276 32.449l-18.413 10.607c-1.0272 0.5914-1.9529 0.5528-2.5363 0.0128l-0.0887 0.09 0.0887 0.09c0.5961 0.54 1.5091 0.5786 2.5363-0.0128l18.527-10.672-0.1142-0.1157z" fill="#000" opacity=".2"></path><path d="m10.436 33.884c-0.29-0.3142-0.45994-0.8007-0.45994-1.4191v0.1521c0 0.6284 0.16994 1.115 0.45994 1.4191l0.0699-0.071-0.0699-0.0811z" fill="#000" opacity=".12"></path><path d="m40.592 28.81l-6.3279 3.6386 0.1141 0.1157 6.2011-3.5743c0.8877-0.5143 1.3315-1.1829 1.3315-1.8514-0.0634 0.6043-0.5072 1.2085-1.3188 1.6714z" fill="#000" opacity=".12"></path><path d="m15.863 11.225l24.728 14.246c0.7989 0.4629 1.2554 1.0543 1.3315 1.6714 0-0.6685-0.4438-1.35-1.3315-1.8514l-24.728-14.246c-1.7753-1.0157-3.221-0.1672-3.221 1.89v0.1928c0-2.07 1.4583-2.9185 3.221-1.9028z" fill="#F0EEEE" opacity=".25"></path><path d="m86.409 29.623c-2.9801 0-5.4148 2.3015-5.4148 5.4643 0 3.15 2.4347 5.4643 5.4148 5.4643s5.4149-2.3143 5.4149-5.4643c0-3.1628-2.4348-5.4643-5.4149-5.4643zm0 8.7815c-1.6359 0-3.0435-1.3629-3.0435-3.3172 0-1.9671 1.4076-3.3171 3.0435-3.3171s3.0435 1.35 3.0435 3.3171c0 1.9543-1.4203 3.3172-3.0435 3.3172zm-11.819-8.7815c-2.9801 0-5.4149 2.3015-5.4149 5.4643 0 3.15 2.4348 5.4643 5.4149 5.4643 2.98 0 5.4148-2.3143 5.4148-5.4643 0-3.1628-2.4348-5.4643-5.4148-5.4643zm0 8.7815c-1.6359 0-3.0435-1.3629-3.0435-3.3172 0-1.9671 1.4076-3.3171 3.0435-3.3171 1.6358 0 3.0435 1.35 3.0435 3.3171 0 1.9543-1.4077 3.3172-3.0435 3.3172zm-14.051-7.0972v2.3143h5.4783c-0.1648 1.2986-0.596 2.2629-1.2427 2.9186-0.799 0.81-2.0417 1.6971-4.2229 1.6971-3.3732 0-6.0108-2.7514-6.0108-6.1714s2.6376-6.1714 6.0108-6.1714c1.8134 0 3.145 0.72 4.1214 1.6585l1.6105-1.6328c-1.3696-1.3243-3.183-2.34-5.7446-2.34-4.6159 0-8.4963 3.8057-8.4963 8.4986 0 4.6799 3.8804 8.4985 8.4963 8.4985 2.4982 0 4.375-0.8228 5.8461-2.3786 1.509-1.53 1.9782-3.6899 1.9782-5.4257 0-0.54-0.038-1.0414-0.1268-1.4528h-7.6975v-0.0129zm57.459 1.8c-0.444-1.2214-1.814-3.4843-4.616-3.4843-2.777 0-5.085 2.2115-5.085 5.4643 0 3.06 2.282 5.4643 5.351 5.4643 2.473 0 3.906-1.53 4.489-2.4171l-1.839-1.2472c-0.608 0.9129-1.445 1.5172-2.65 1.5172s-2.067-0.5657-2.612-1.6586l7.215-3.0214-0.253-0.6172zm-7.355 1.8257c-0.064-2.1085 1.61-3.1885 2.815-3.1885 0.938 0 1.737 0.4757 2.003 1.1571l-4.818 2.0314zm-5.859 5.2972h2.371v-16.071h-2.371v16.071zm-3.881-9.3857h-0.088c-0.533-0.6429-1.5474-1.2215-2.8409-1.2215-2.7011 0-5.1739 2.4043-5.1739 5.49 0 3.06 2.4728 5.4515 5.1739 5.4515 1.2808 0 2.3079-0.5786 2.8409-1.2472h0.076v0.7843c0 2.0957-1.1035 3.2143-2.8788 3.2143-1.4457 0-2.346-1.0543-2.7138-1.9414l-2.067 0.8742c0.596 1.4529 2.1685 3.2272 4.7808 3.2272 2.7768 0 5.1228-1.6586 5.1228-5.6957v-9.8229h-2.244v0.8872h0.012zm-2.726 7.56c-1.6358 0-3.0054-1.3886-3.0054-3.2915 0-1.9285 1.3696-3.33 3.0054-3.33 1.6105 0 2.879 1.4143 2.879 3.33 0.012 1.9029-1.2558 3.2915-2.879 3.2915zm30.929-14.246h-5.668v16.071h2.371v-6.0943h3.31c2.625 0 5.199-1.9286 5.199-4.9886s-2.599-4.9885-5.212-4.9885zm0.051 7.74h-3.36v-5.5158h3.36c1.775 0 2.777 1.4915 2.777 2.7515s-1.002 2.7643-2.777 2.7643zm14.634-2.3015c-1.712 0-3.487 0.7714-4.223 2.4557l2.105 0.8872c0.444-0.8872 1.281-1.1829 2.156-1.1829 1.218 0 2.473 0.7457 2.486 2.07v0.1672c-0.431-0.2443-1.344-0.6172-2.473-0.6172-2.27 0-4.565 1.26-4.565 3.6129 0 2.1471 1.851 3.5357 3.931 3.5357 1.585 0 2.473-0.72 3.018-1.5686h0.076v1.2472h2.283v-6.1586c0.012-2.8543-2.093-4.4486-4.794-4.4486zm-0.292 8.8072c-0.773 0-1.851-0.3986-1.851-1.3629 0-1.2343 1.344-1.71 2.511-1.71 1.04 0 1.534 0.2314 2.156 0.54-0.178 1.4786-1.446 2.5329-2.816 2.5329zm13.417-8.46l-2.714 6.9685h-0.076l-2.815-6.9685h-2.549l4.223 9.7457-2.409 5.4128h2.472l6.506-15.158h-2.638zm-21.304 10.286h2.371v-16.071h-2.371v16.071z" fill="#F0EEEE"></path><path d="m52.424 18.372v-7.7143h2.3334c1.1666 0 2.105 0.36 2.8025 1.0671 0.6975 0.72 1.0525 1.6458 1.0525 2.79 0 1.1443-0.355 2.07-1.0525 2.79-0.7101 0.7072-1.6486 1.0672-2.8152 1.0672h-2.3207zm0.9765-0.9514h1.3442c0.875 0 1.5724-0.2572 2.0924-0.7715 0.5199-0.5143 0.7735-1.2214 0.7735-2.1471 0-0.9129-0.2536-1.62-0.7735-2.1343-0.52-0.5143-1.2047-0.7714-2.0924-0.7714h-1.3442v5.8243z" fill="#F0EEEE" stroke="#F0EEEE" stroke-miterlimit="10" stroke-width="0.190217"></path><path d="m59.982 18.372v-7.7143h0.9765v7.7143h-0.9765z" fill="#F0EEEE" stroke="#F0EEEE" stroke-miterlimit="10" stroke-width="0.190217"></path><path d="m64.839 18.538c-0.5579 0-1.0906-0.18-1.6232-0.5529-0.5326-0.3728-0.875-0.8743-1.0398-1.5428l0.8877-0.36c0.1014 0.4243 0.317 0.7843 0.6467 1.0671 0.3297 0.2957 0.6975 0.4372 1.1159 0.4372 0.4185 0 0.7863-0.1158 1.0906-0.3343 0.3044-0.2315 0.4565-0.5272 0.4565-0.9257 0-0.4243-0.1521-0.7586-0.4565-0.99-0.3043-0.2315-0.7735-0.45-1.4329-0.6558-0.6721-0.2185-1.1794-0.4885-1.5345-0.8357-0.3424-0.3471-0.5199-0.7714-0.5199-1.3114 0-0.5529 0.2156-1.0286 0.6467-1.44 0.4312-0.4114 1.0019-0.6171 1.6866-0.6171 0.6468 0 1.1667 0.1671 1.5725 0.4885 0.4058 0.3215 0.6721 0.6815 0.7862 1.0672l-0.8876 0.3728c-0.0635-0.2443-0.2156-0.4757-0.4692-0.6814-0.2537-0.2057-0.5707-0.3086-0.9765-0.3086-0.3804 0-0.6975 0.1029-0.9638 0.3215-0.2663 0.2185-0.3931 0.4757-0.3931 0.7971 0 0.2829 0.1268 0.5271 0.3678 0.7329 0.2409 0.1928 0.6087 0.3728 1.0779 0.5271 0.3804 0.1286 0.6848 0.2443 0.9384 0.36s0.5072 0.27 0.7608 0.4629c0.2537 0.1928 0.4566 0.4242 0.5834 0.7071s0.2029 0.6171 0.2029 0.99-0.0761 0.7071-0.2283 1.0029c-0.1522 0.2957-0.3551 0.5271-0.6087 0.6942-0.2536 0.1672-0.5199 0.3086-0.8116 0.3986-0.2663 0.09-0.5706 0.1286-0.875 0.1286z" fill="#F0EEEE" stroke="#F0EEEE" stroke-miterlimit="10" stroke-width="0.190217"></path><path d="m69.76 18.372h-0.9765v-7.7143h2.587c0.6467 0 1.2047 0.2186 1.6739 0.6557 0.4692 0.4372 0.7101 0.9772 0.7101 1.6457 0 0.6557-0.2409 1.2086-0.7101 1.6457-0.4692 0.4372-1.0272 0.6558-1.6739 0.6558h-1.6105v3.1114zm0-4.0757h1.6358c0.4058 0 0.7355-0.1415 0.9892-0.4243 0.2536-0.2829 0.3677-0.5914 0.3677-0.9257s-0.1268-0.6429-0.3677-0.9257c-0.2537-0.2829-0.5834-0.4243-0.9892-0.4243h-1.6358v2.7z" fill="#F0EEEE" stroke="#F0EEEE" stroke-miterlimit="10" stroke-width="0.190217"></path><path d="m81.209 17.369c-0.7482 0.7843-1.6739 1.17-2.7898 1.17-1.116 0-2.0417-0.3857-2.7899-1.17s-1.1159-1.7357-1.1159-2.8543 0.3677-2.0828 1.1159-2.8543c0.7482-0.7843 1.6739-1.17 2.7899-1.17 1.1032 0 2.029 0.3857 2.7898 1.17 0.7482 0.7843 1.1286 1.7357 1.1286 2.8543 0 1.1314-0.3804 2.0829-1.1286 2.8543zm-4.8569-0.6429c0.558 0.5786 1.2555 0.8615 2.0671 0.8615s1.509-0.2829 2.067-0.8615c0.558-0.5785 0.8496-1.3114 0.8496-2.2114s-0.279-1.6328-0.8496-2.2114c-0.558-0.5786-1.2554-0.8614-2.067-0.8614s-1.5091 0.2828-2.0671 0.8614c-0.5579 0.5786-0.8496 1.3114-0.8496 2.2114s0.2917 1.6329 0.8496 2.2114z" fill="#F0EEEE" stroke="#F0EEEE" stroke-miterlimit="10" stroke-width="0.190217"></path><path d="m83.708 18.372v-7.7143h1.192l3.7029 6.0043h0.0381l-0.0381-1.4914v-4.5129h0.9765v7.7143h-1.0145l-3.8678-6.2872h-0.038l0.038 1.4915v4.7957h-0.9891z" fill="#F0EEEE" stroke="#F0EEEE" stroke-miterlimit="10" stroke-width="0.190217"></path><path d="m91.316 18.372v-7.7143h0.9765v7.7143h-0.9765zm0.9131-8.3186h-0.8497l0.558-1.3757h1.0652l-0.7735 1.3757z" fill="#F0EEEE" stroke="#F0EEEE" stroke-miterlimit="10" stroke-width="0.190217"></path><path d="m95.921 18.372l-2.6757-7.7143h1.0779l2.0797 6.2614h0.0381l2.1811-6.2614h1.0779l-2.7645 7.7143h-1.0145z" fill="#F0EEEE" stroke="#F0EEEE" stroke-miterlimit="10" stroke-width="0.190217"></path><path d="m105.25 11.61h-3.462v2.4429h3.119v0.9257h-3.119v2.4429h3.462v0.9514h-4.439v-7.7143h4.439v0.9514z" fill="#F0EEEE" stroke="#F0EEEE" stroke-miterlimit="10" stroke-width="0.190217"></path><path d="m106.78 18.372v-7.7143h0.977v6.7629h3.297v0.9514h-4.274z" fill="#F0EEEE" stroke="#F0EEEE" stroke-miterlimit="10" stroke-width="0.190217"></path><path d="m114.83 18.372v-7.7143h1.192l3.703 6.0043h0.038l-0.038-1.4914v-4.5129h0.976v7.7143h-1.014l-3.868-6.2872h-0.038l0.038 1.4915v4.7957h-0.989z" fill="#F0EEEE" stroke="#F0EEEE" stroke-miterlimit="10" stroke-width="0.190217"></path><path d="m128.66 17.369c-0.748 0.7843-1.673 1.17-2.789 1.17s-2.042-0.3857-2.79-1.17-1.116-1.7357-1.116-2.8543 0.368-2.0828 1.116-2.8543c0.748-0.7843 1.674-1.17 2.79-1.17 1.103 0 2.029 0.3857 2.789 1.17 0.749 0.7843 1.129 1.7357 1.129 2.8543-0.013 1.1314-0.38 2.0829-1.129 2.8543zm-4.856-0.6429c0.558 0.5786 1.255 0.8615 2.067 0.8615 0.811 0 1.509-0.2829 2.067-0.8615 0.558-0.5785 0.849-1.3114 0.849-2.2114s-0.279-1.6328-0.849-2.2114c-0.558-0.5786-1.256-0.8614-2.067-0.8614-0.812 0-1.509 0.2828-2.067 0.8614s-0.85 1.3114-0.85 2.2114 0.292 1.6329 0.85 2.2114z" fill="#F0EEEE" stroke="#F0EEEE" stroke-miterlimit="10" stroke-width="0.190217"></path><defs><linearGradient id="d" x1="27.643" x2="6.0677" y1="12.623" y2="33.903" gradientUnits="userSpaceOnUse"><stop offset="0" stop-color="#00A0FF"></stop><stop offset=".0065744" stop-color="#00A1FF"></stop><stop offset=".2601" stop-color="#00BEFF"></stop><stop offset=".5122" stop-color="#00D2FF"></stop><stop offset=".7604" stop-color="#00DFFF"></stop><stop offset="1" stop-color="#00E3FF"></stop></linearGradient><linearGradient id="c" x1="42.904" x2="12.22" y1="27.143" y2="27.143" gradientUnits="userSpaceOnUse"><stop offset="0" stop-color="#FFE000"></stop><stop offset=".4087" stop-color="#FFBD00"></stop><stop offset=".7754" stop-color="#FFA500"></stop><stop offset="1" stop-color="#FF9C00"></stop></linearGradient><linearGradient id="b" x1="31.483" x2="2.2248" y1="30.091" y2="58.948" gradientUnits="userSpaceOnUse"><stop offset="0" stop-color="#FF3A44"></stop><stop offset="1" stop-color="#C31162"></stop></linearGradient><linearGradient id="a" x1="9.252" x2="22.317" y1="1.6525" y2="14.538" gradientUnits="userSpaceOnUse"><stop offset="0" stop-color="#32A071"></stop><stop offset=".0685" stop-color="#2DA771"></stop><stop offset=".4762" stop-color="#15CF74"></stop><stop offset=".8009" stop-color="#06E775"></stop><stop offset="1" stop-color="#00F076"></stop></linearGradient></defs></svg>